<svg width="30" height="30" viewBox="0 0 30 30" fill="none" xmlns="http://www.w3.org/2000/svg">
<path id="Vector" d="M11.5385 28.9286V21.4184C11.5385 20.8934 12.1154 20.3578 12.6923 20.3578H17.3077C17.8846 20.3578 18.4615 20.8934 18.4615 21.4291V28.9286C18.4615 29.2128 18.5831 29.4853 18.7995 29.6862C19.0159 29.8871 19.3094 30 19.6154 30H28.8462C29.1522 30 29.4457 29.8871 29.662 29.6862C29.8784 29.4853 30 29.2128 30 28.9286V13.9296C30.0003 13.7888 29.9707 13.6494 29.9128 13.5192C29.855 13.389 29.7702 13.2708 29.6631 13.1711L26.5385 10.272V3.216C26.5385 2.93185 26.4169 2.65935 26.2005 2.45843C25.9841 2.25751 25.6906 2.14464 25.3846 2.14464H23.0769C22.7709 2.14464 22.4774 2.25751 22.261 2.45843C22.0446 2.65935 21.9231 2.93185 21.9231 3.216V5.98653L15.8169 0.314752C15.7097 0.21498 15.5824 0.135822 15.4422 0.0818117C15.302 0.0278014 15.1518 0 15 0C14.8482 0 14.698 0.0278014 14.5578 0.0818117C14.4176 0.135822 14.2903 0.21498 14.1831 0.314752L0.336925 13.1711C0.229844 13.2708 0.144971 13.389 0.0871596 13.5192C0.029348 13.6494 -0.000268961 13.7888 1.84037e-06 13.9296V28.9286C1.84037e-06 29.2128 0.121567 29.4853 0.337955 29.6862C0.554344 29.8871 0.847829 30 1.15385 30H10.3846C10.6906 30 10.9841 29.8871 11.2005 29.6862C11.4169 29.4853 11.5385 29.2128 11.5385 28.9286Z" fill="black"/>
</svg>
