<svg width="30" height="30" viewBox="0 0 30 30" fill="none" xmlns="http://www.w3.org/2000/svg">
<path id="Vector" d="M7.5 -9.53674e-06C11.6438 -9.53674e-06 15 3.84023 15 8.57762C15 3.84023 18.3563 -9.53674e-06 22.5 -9.53674e-06C26.6437 -9.53674e-06 30 3.84023 30 8.57762C30 15.7176 23.9363 18.2362 15.735 29.6016C15.6447 29.7264 15.5322 29.8267 15.4052 29.8955C15.2783 29.9643 15.14 30 15 30C14.86 30 14.7217 29.9643 14.5948 29.8955C14.4678 29.8267 14.3553 29.7264 14.265 29.6016C6.06375 18.2362 0 15.7176 0 8.57762C0 3.84023 3.35625 -9.53674e-06 7.5 -9.53674e-06Z" fill="black"/>
</svg>
