<svg width="50" height="50" viewBox="0 0 50 50" fill="none" xmlns="http://www.w3.org/2000/svg">
<g id="box-arrow-left 1" clip-path="url(#clip0_25_115)">
<path id="Vector" fill-rule="evenodd" clip-rule="evenodd" d="M18.75 39.0625C18.75 39.4769 18.9146 39.8743 19.2076 40.1674C19.5007 40.4604 19.8981 40.625 20.3125 40.625H45.3125C45.7269 40.625 46.1243 40.4604 46.4174 40.1674C46.7104 39.8743 46.875 39.4769 46.875 39.0625V10.9375C46.875 10.5231 46.7104 10.1257 46.4174 9.83265C46.1243 9.53962 45.7269 9.375 45.3125 9.375H20.3125C19.8981 9.375 19.5007 9.53962 19.2076 9.83265C18.9146 10.1257 18.75 10.5231 18.75 10.9375V17.1875C18.75 17.6019 18.5854 17.9993 18.2924 18.2924C17.9993 18.5854 17.6019 18.75 17.1875 18.75C16.7731 18.75 16.3757 18.5854 16.0826 18.2924C15.7896 17.9993 15.625 17.6019 15.625 17.1875V10.9375C15.625 9.6943 16.1189 8.50201 16.9979 7.62294C17.877 6.74386 19.0693 6.25 20.3125 6.25H45.3125C46.5557 6.25 47.748 6.74386 48.6271 7.62294C49.5061 8.50201 50 9.6943 50 10.9375V39.0625C50 40.3057 49.5061 41.498 48.6271 42.3771C47.748 43.2561 46.5557 43.75 45.3125 43.75H20.3125C19.0693 43.75 17.877 43.2561 16.9979 42.3771C16.1189 41.498 15.625 40.3057 15.625 39.0625V32.8125C15.625 32.3981 15.7896 32.0007 16.0826 31.7076C16.3757 31.4146 16.7731 31.25 17.1875 31.25C17.6019 31.25 17.9993 31.4146 18.2924 31.7076C18.5854 32.0007 18.75 32.3981 18.75 32.8125V39.0625Z" fill="black"/>
<path id="Vector_2" fill-rule="evenodd" clip-rule="evenodd" d="M0.456358 26.1063C0.310847 25.9611 0.195401 25.7887 0.116631 25.5989C0.0378607 25.409 -0.00268555 25.2055 -0.00268555 25C-0.00268555 24.7945 0.0378607 24.591 0.116631 24.4012C0.195401 24.2113 0.310847 24.0389 0.456358 23.8938L9.83136 14.5188C9.97663 14.3735 10.1491 14.2583 10.3389 14.1796C10.5287 14.101 10.7322 14.0605 10.9376 14.0605C11.1431 14.0605 11.3465 14.101 11.5363 14.1796C11.7261 14.2583 11.8986 14.3735 12.0439 14.5188C12.1891 14.664 12.3044 14.8365 12.383 15.0263C12.4616 15.2161 12.5021 15.4196 12.5021 15.625C12.5021 15.8305 12.4616 16.0339 12.383 16.2237C12.3044 16.4135 12.1891 16.586 12.0439 16.7313L5.33448 23.4375H32.8126C33.227 23.4375 33.6244 23.6021 33.9175 23.8952C34.2105 24.1882 34.3751 24.5856 34.3751 25C34.3751 25.4144 34.2105 25.8119 33.9175 26.1049C33.6244 26.3979 33.227 26.5625 32.8126 26.5625H5.33448L12.0439 33.2688C12.1891 33.414 12.3044 33.5865 12.383 33.7763C12.4616 33.9661 12.5021 34.1696 12.5021 34.375C12.5021 34.5805 12.4616 34.7839 12.383 34.9737C12.3044 35.1635 12.1891 35.336 12.0439 35.4813C11.8986 35.6265 11.7261 35.7418 11.5363 35.8204C11.3465 35.899 11.1431 35.9395 10.9376 35.9395C10.7322 35.9395 10.5287 35.899 10.3389 35.8204C10.1491 35.7418 9.97663 35.6265 9.83136 35.4813L0.456358 26.1063Z" fill="black"/>
</g>
<defs>
<clipPath id="clip0_25_115">
<rect width="50" height="50" fill="white"/>
</clipPath>
</defs>
</svg>
